<svg xmlns="http://www.w3.org/2000/svg"  viewBox="0 0 64 64" width="512px" height="512px"><ellipse cx="32" cy="61" opacity=".3" rx="19" ry="3"/><path fill="#cd2e42" d="M52.97,19l-1.8,28.36c-0.05,0.76-0.37,1.43-0.88,1.93c-0.5,0.5-1.17,0.83-1.93,0.87L18,52l0.11-0.11	c-2.39,0-4.46-0.58-6.03-1.82c-0.24-0.19-0.47-0.39-0.69-0.61c-1.4-1.41-2.15-3.31-2.33-5.53c-0.03-0.31-0.05-0.62-0.05-0.94L9,43	V30.57c0-0.16,0.02-0.32,0.06-0.47c0.04-0.18,0.11-0.36,0.21-0.53l4.43-7.09L14,22l4.5-4.5l4.1-4.1c0.26-0.26,0.56-0.5,0.88-0.7	l7.09-4.43c0.17-0.1,0.35-0.17,0.53-0.21C31.25,8.02,31.41,8,31.57,8H44l-0.01,0.01c0.32,0,0.64,0.01,0.95,0.04	c2.34,0.16,4.32,0.93,5.77,2.39C52.7,12.45,53.4,15.46,52.97,19z"/><path fill="#a8172d" d="M50.29,49.29c-0.5,0.5-1.17,0.83-1.93,0.87L18,52l0.11-0.11c-2.39,0-4.46-0.58-6.03-1.82L31,30	L50.29,49.29z"/><ellipse cx="31.049" cy="29.951" fill="#fd3c4f" rx="27.7" ry="14.142" transform="rotate(-44.781 31.048 29.95)"/><polygon fill="#ffa1ac" points="14,38 18.5,52 25,34"/><path fill="#ffa1ac" d="M14,38l-4.94,5.93L9,44V30.57c0-0.16,0.02-0.32,0.06-0.47L14,38z"/><polygon fill="#ffa1ac" points="35,24 30.5,29.5 25,34 41,40"/><polygon fill="#ffa1ac" points="39,13 53,17.5 35,24"/><path fill="#ffa1ac" d="M45,8l-0.06,0.05L39,13l-7.9-4.94C31.25,8.02,31.41,8,31.57,8H45z"/><path fill="#fd3c4f" d="M39,13l-4,11l-4.5,5.5L25,34l-11,4l-4.94-7.9c0.04-0.18,0.11-0.36,0.21-0.53l4.43-7.09	c0.2-0.32,0.44-0.62,0.7-0.88l4.1-4.1l4.1-4.1c0.26-0.26,0.56-0.5,0.88-0.7l7.09-4.43c0.17-0.1,0.35-0.17,0.53-0.21L39,13z"/><path fill="#fff" d="M35.56,8c0.09,1.76-0.74,3.51-2.34,4.51l-7.09,4.43	l-8.19,8.19l-4.43,7.09c-0.95,1.52-2.58,2.35-4.25,2.35c-0.09,0-0.17,0-0.26-0.01v-3.99c0-0.16,0.02-0.32,0.06-0.47	c0.04-0.18,0.11-0.36,0.21-0.53l4.43-7.09L14,22l4.5-4.5l4.1-4.1c0.26-0.26,0.56-0.5,0.88-0.7l7.09-4.43	c0.17-0.1,0.35-0.17,0.53-0.21C31.25,8.02,31.41,8,31.57,8H35.56z" opacity=".3"/><path d="M47.03,33.68l-0.74,11.6l-11.59,0.7c-2.76,0.17-4.86,2.54-4.69,5.29	l18.35-1.11c0.76-0.04,1.43-0.37,1.93-0.87c0.51-0.5,0.83-1.17,0.88-1.93l1.16-18.35C49.59,28.84,47.2,30.93,47.03,33.68z" opacity=".15"/><path fill="#fff" d="M22.5,20c-0.384,0-0.768-0.146-1.061-0.439c-0.586-0.586-0.586-1.535,0-2.121l1.71-1.71	c0.971-0.971,2.085-1.773,3.312-2.387l1.367-0.685c0.739-0.368,1.642-0.069,2.013,0.671c0.37,0.74,0.07,1.642-0.671,2.013	l-1.368,0.685c-0.938,0.469-1.79,1.082-2.532,1.824l-1.71,1.71C23.268,19.854,22.884,20,22.5,20z"/></svg>