<?xml version="1.0" standalone="no"?>
<!DOCTYPE svg PUBLIC "-//W3C//DTD SVG 1.1//EN" "http://www.w3.org/Graphics/SVG/1.1/DTD/svg11.dtd">
<svg xmlns="http://www.w3.org/2000/svg" xmlns:xlink="http://www.w3.org/1999/xlink" version="1.1" id="Layer_1" x="0px" y="0px" viewBox="0 0 1041.6 160" style="enable-background:new 0 0 1041.6 160;" xml:space="preserve" width="1041.5999755859375" height="160">
<style type="text/css">
	.st0{fill-rule:evenodd;clip-rule:evenodd;fill:#0045DB;}
</style>
<path d="M270.5,124h-11.8l-15.9-37.4h-23.4V124h-11.1V37.2H242c9.4,0,16.5,2.1,21.2,6.3c4.7,4.2,7.1,10,7.1,17.4  c0,4.7-0.8,8.7-2.5,11.8s-3.8,5.6-6.3,7.5c-2.6,1.9-5.2,3.4-8,4.4L270.5,124L270.5,124z M238.4,77.4c6.5,0,11.6-1.3,15.1-4  c3.6-2.7,5.3-6.6,5.3-11.9s-1.6-8.9-4.8-11.5c-3.2-2.6-7.5-3.8-13.1-3.8h-21.6v31.2H238.4z"/>
<path d="M297.9,37.2v11.5h-11.4V37.2H297.9z M297.6,61.9V124h-10.8V61.9H297.6z"/>
<path d="M342.4,144.5c-9.7,0-17.3-1.4-22.8-4.2c-5.4-2.8-8.2-6.9-8.2-12.1c0-2.2,0.5-4.2,1.6-5.7s2.3-2.9,3.7-3.9s2.8-1.9,4-2.5  c1.2-0.6,2.1-1.1,2.5-1.3c-0.7-0.4-1.6-0.9-2.6-1.5s-1.9-1.4-2.7-2.4s-1.1-2.3-1.1-3.9c0-2,0.9-3.8,2.8-5.4s4.6-2.8,8.2-3.7  c-3.7-1.8-6.5-4.2-8.6-7.3c-2-3.1-3-6.4-3-9.9c0-6,2.4-10.8,7.2-14.3c4.8-3.5,11.4-5.3,19.9-5.3c4,0,7.4,0.5,10.2,1.4s5.3,2.3,7.7,4  c0.9-0.4,2.4-1,4.5-1.9c2.1-0.9,4.2-1.8,6.4-2.7c2.2-0.9,3.8-1.6,5-2l-0.1,10.3l-10.9,2c1.4,2.8,2,5.6,2,8.5  c0,5.5-2.1,10.1-6.4,13.9s-10.8,5.7-19.5,5.7c-0.5,0-1.1,0-1.8,0c-0.7,0-1.4-0.1-1.9-0.1c-4.2,0.1-7.2,0.6-8.7,1.4  c-1.6,0.8-2.4,1.7-2.4,2.7c0,1.2,0.9,2,2.7,2.4s4.8,0.8,9.2,1.1c1.6,0.1,3.5,0.2,5.8,0.3c2.3,0.1,4.9,0.3,7.7,0.4  c6.5,0.4,11.5,2.1,15,5c3.5,2.9,5.3,6.9,5.3,11.8c0,5.6-2.5,10.3-7.5,13.8C360.4,142.8,352.7,144.5,342.4,144.5L342.4,144.5z   M344.3,137.4c5.7,0,10.1-0.9,13.2-2.6s4.6-4.3,4.6-7.8c0-2.4-0.9-4.5-2.8-6.1s-4.7-2.5-8.5-2.8l-17.4-1.1c-1.6-0.1-3.2,0.3-4.9,1.2  s-3.1,2.1-4.3,3.6s-1.7,3.2-1.7,5.2c0,3.3,1.8,5.9,5.3,7.7C331.3,136.5,336.9,137.4,344.3,137.4z M342.5,93.1c4.4,0,8-1,10.8-3.1  s4.1-5.2,4.1-9.2s-1.4-7.4-4.1-9.6s-6.3-3.3-10.8-3.3s-8.2,1.1-11,3.3s-4.2,5.4-4.2,9.6c0,3.9,1.3,7,4,9.1  C333.9,92,337.6,93.1,342.5,93.1z"/>
<path d="M390.9,124V34.8h10.8V71c1.6-2.6,3.9-4.8,7.1-6.9c3.2-2,7.3-3,12.2-3c4,0,7.7,0.8,11,2.2s5.9,3.6,7.8,6.4  c1.9,2.8,2.9,6,2.9,9.8V124h-11.1V81.8c0-3.7-1.3-6.6-3.8-8.6c-2.5-2-5.9-3-9.9-3c-2.8,0-5.4,0.4-7.8,1.3s-4.4,2.3-5.9,4.1  s-2.2,4.1-2.2,6.9V124L390.9,124L390.9,124z"/>
<path d="M489.1,70h-14v38.6c0,3.3,0.5,5.3,1.6,6.1s3,1.1,6,1.1h6.8v7.4c-0.8,0.3-2,0.5-3.5,0.7s-3.4,0.3-5.7,0.3  c-6.5,0-10.8-1.3-13-3.9S464,114,464,109V70h-10.1v-8.1h10.4l2.7-18.1h8.2v18h14L489.1,70L489.1,70z"/>
<path d="M539.4,125.2c-5.4,0-10.6-0.9-15.5-2.7s-9-4.5-12.4-8.1c-3.3-3.6-5.4-8.1-6.1-13.4h11.7c1.1,4.9,3.7,8.7,7.9,11.2  c4.2,2.5,9,3.8,14.4,3.8c6.1,0,11.2-1.3,15.3-3.8c4.1-2.5,6.1-6,6.1-10.4c0-3.9-1.3-7.1-3.9-9.4c-2.6-2.3-6.3-4.1-11.1-5.2l-17-4  c-6.4-1.4-11.4-3.9-15-7.5s-5.5-8.4-5.5-14.3c0-5,1.3-9.4,4-13.2s6.3-6.8,11-8.9c4.7-2.1,10-3.2,16-3.2c6.9,0,12.8,1.2,17.5,3.5  s8.3,5.5,10.7,9.3c2.4,3.8,3.6,8,3.7,12.3h-11.5c-0.4-3.9-1.5-7-3.5-9.3s-4.4-3.9-7.3-4.9c-2.9-1-6.1-1.5-9.5-1.5s-6.4,0.6-9.3,1.7  s-5.3,2.8-7.2,5c-1.9,2.2-2.8,4.9-2.8,8.1s1.1,5.7,3.2,7.7c2.1,1.9,6,3.6,11.7,5l16.5,4c5.8,1.2,10.2,3.2,13.2,5.9  c3,2.7,5,5.7,6.2,9c1.1,3.3,1.7,6.6,1.7,9.7c0,4.4-1.3,8.3-3.9,11.9s-6.3,6.4-11.2,8.5C552.1,124.1,546.3,125.2,539.4,125.2  L539.4,125.2z"/>
<path d="M599.9,37.2v11.5h-11.3V37.2H599.9z M599.6,61.9V124h-10.8V61.9H599.6z"/>
<path d="M644.3,144.5c-9.7,0-17.3-1.4-22.8-4.2c-5.4-2.8-8.2-6.9-8.2-12.1c0-2.2,0.5-4.2,1.6-5.7s2.3-2.9,3.7-3.9  c1.4-1,2.8-1.9,4-2.5c1.2-0.6,2.1-1.1,2.5-1.3c-0.7-0.4-1.6-0.9-2.6-1.5c-1-0.6-1.9-1.4-2.7-2.4s-1.1-2.3-1.1-3.9  c0-2,0.9-3.8,2.8-5.4s4.6-2.8,8.2-3.7c-3.7-1.8-6.5-4.2-8.6-7.3s-3-6.4-3-9.9c0-6,2.4-10.8,7.2-14.3c4.8-3.5,11.4-5.3,19.8-5.3  c4,0,7.4,0.5,10.2,1.4s5.3,2.3,7.7,4c0.9-0.4,2.4-1,4.5-1.9c2.1-0.9,4.2-1.8,6.4-2.7c2.2-0.9,3.8-1.6,5-2l-0.1,10.3l-10.9,2  c1.4,2.8,2,5.6,2,8.5c0,5.5-2.1,10.1-6.4,13.9c-4.3,3.8-10.8,5.7-19.5,5.7c-0.5,0-1.1,0-1.8,0c-0.7,0-1.4-0.1-1.9-0.1  c-4.2,0.1-7.2,0.6-8.7,1.4c-1.6,0.8-2.4,1.7-2.4,2.7c0,1.2,0.9,2,2.7,2.4c1.8,0.4,4.8,0.8,9.2,1.1c1.6,0.1,3.5,0.2,5.8,0.3  s4.9,0.3,7.7,0.4c6.5,0.4,11.5,2.1,15,5c3.5,2.9,5.3,6.9,5.3,11.8c0,5.6-2.5,10.3-7.5,13.8C662.3,142.8,654.6,144.5,644.3,144.5  L644.3,144.5z M646.3,137.4c5.7,0,10.1-0.9,13.2-2.6s4.6-4.3,4.6-7.8c0-2.4-0.9-4.5-2.8-6.1s-4.7-2.5-8.5-2.8l-17.4-1.1  c-1.6-0.1-3.2,0.3-4.9,1.2s-3.1,2.1-4.3,3.6c-1.2,1.5-1.7,3.2-1.7,5.2c0,3.3,1.8,5.9,5.3,7.7C633.3,136.5,638.8,137.4,646.3,137.4z   M644.4,93.1c4.4,0,8-1,10.8-3.1c2.7-2.1,4.1-5.2,4.1-9.2s-1.4-7.4-4.1-9.6s-6.3-3.3-10.8-3.3s-8.2,1.1-11,3.3s-4.2,5.4-4.2,9.6  c0,3.9,1.3,7,4,9.1C635.9,92,639.6,93.1,644.4,93.1z"/>
<path d="M692.8,124V61.9h10.8v9c1.5-2.6,3.9-4.9,7.2-6.9c3.2-2,7.3-3,12.3-3c3.9,0,7.5,0.8,10.8,2.3c3.3,1.6,5.9,4,7.9,7.3  c2,3.3,3,7.6,3,12.8V124h-11.1V84.5c0-4.8-1.3-8.4-3.8-10.8s-5.8-3.5-9.9-3.5c-2.8,0-5.4,0.4-7.9,1.3s-4.4,2.3-5.9,4.1  s-2.3,4.1-2.3,6.9V124L692.8,124L692.8,124z"/>
<path d="M779.4,125.2c-6,0-11-1.6-14.8-4.7c-3.8-3.2-5.7-7.6-5.7-13.3c0-6.9,2.4-12,7.2-15.4c4.8-3.4,12.5-5.2,23.2-5.4l11-0.3v-4.9  c0-3.8-1.1-6.8-3.4-9c-2.3-2.2-5.8-3.3-10.6-3.3c-3.6,0-6.7,0.9-9.4,2.6s-4.5,4.3-5.2,8h-9.8c0.3-6,2.7-10.7,7.1-13.9  s10.4-4.8,17.9-4.8c8,0,14.1,1.7,18.1,5.1c4,3.4,6.1,8.3,6.1,14.8V124h-9.5l-0.8-11.7c-2.4,4.8-5.5,8.2-9.1,10.1  S783.8,125.2,779.4,125.2L779.4,125.2z M782.7,117.2c2.8,0,5.5-0.7,8.2-2c2.7-1.3,4.9-3,6.7-5.1c1.8-2.1,2.7-4.2,2.7-6.6V92.9  l-9.2,0.2c-7.1,0.1-12.5,1.2-16.1,3.2s-5.4,5.2-5.4,9.8c0,3.5,1.2,6.3,3.7,8.2C775.8,116.2,778.9,117.2,782.7,117.2L782.7,117.2z"/>
<path d="M857.4,70h-14v38.6c0,3.3,0.5,5.3,1.6,6.1s3,1.1,6,1.1h6.8v7.4c-0.8,0.3-2,0.5-3.5,0.7s-3.4,0.3-5.7,0.3  c-6.5,0-10.8-1.3-13-3.9s-3.3-6.4-3.3-11.4V70h-10.1v-8.1h10.4l2.7-18.1h8.2v18h14L857.4,70L857.4,70z"/>
<path d="M894.7,125.2c-4.3,0-8.3-0.8-11.9-2.4c-3.6-1.6-6.5-3.9-8.7-7.1s-3.3-7-3.3-11.7V61.9H882v41c0,4,1.2,7.3,3.8,9.8  s6.3,3.8,11.3,3.8c4.6,0,8.2-1.2,11-3.6s4.2-5.9,4.2-10.7V61.9h11V124h-8.8l-1.1-11.9c-1.1,4.7-3.4,8.1-6.8,10.1  C903,124.2,899.1,125.2,894.7,125.2L894.7,125.2z"/>
<path d="M942.4,124V61.9H953v11.9c1.6-4.4,4-7.8,7.4-9.9c3.4-2.2,7-3.2,11-3.2c0.9,0,1.8,0.1,2.7,0.2s1.5,0.3,2.1,0.6v10.8  c-0.6-0.3-1.4-0.5-2.3-0.6s-1.7-0.2-2.4-0.2c-4.9-0.3-9.2,0.6-12.7,2.8c-3.5,2.2-5.3,5.9-5.3,11.1V124L942.4,124L942.4,124z"/>
<path d="M996.6,95.5c0,3.9,0.7,7.5,2,10.7c1.3,3.2,3.3,5.7,5.9,7.6c2.6,1.9,6,2.8,10,2.8s7.4-0.9,10.2-2.8c2.9-1.8,4.7-4.5,5.5-8  h10.4c-0.8,4.2-2.4,7.8-5,10.6c-2.6,2.9-5.7,5.1-9.4,6.5c-3.7,1.5-7.6,2.2-11.6,2.2c-5.8,0-10.8-1.3-15.2-3.8s-7.8-6.1-10.3-10.9  c-2.5-4.7-3.7-10.4-3.7-17s1.1-12.2,3.4-17.2s5.5-8.8,9.7-11.5c4.2-2.8,9.4-4.1,15.4-4.1c8.7,0,15.4,2.8,20.1,8.3  c4.7,5.5,7.1,13,7.1,22.4v4.1L996.6,95.5L996.6,95.5z M996.6,88h33.7c0-5.3-1.4-9.8-4.1-13.4c-2.7-3.6-6.9-5.5-12.5-5.5  c-3.9,0-7.1,0.9-9.7,2.8s-4.5,4.2-5.7,7.2C997.2,81.9,996.6,84.9,996.6,88L996.6,88z"/>
<path class="st0" d="M101.1,102c-17.7,17.7-26.8,31.3-31,38.7l-37,0.1L82,92c2.9-0.2,5.8-1.4,8-3.7c5-5,5-13.2,0-18.2  c-5-5-13.2-5-18.2,0c-2.4,2.4-3.6,5.5-3.7,8.7l-48.8,48.7l0.1-37.8c7-4.3,20.3-13.5,38.2-31.3c14.2-14.2,23.3-25.8,28.8-33.7  l48.9,48.8C127.1,78.9,115.2,87.9,101.1,102L101.1,102z M157.6,68.8l-66.2-66c-2.2-2.2-5.3-3.2-8.3-2.7c-3,0.5-5.7,2.4-7.1,5.2  C75.9,5.4,67.9,21.1,44,45C20.3,68.6,6,75.4,5.9,75.4c-3.5,1.5-5.7,4.9-5.7,8.7L0,150.4c0,2.6,1,5,2.8,6.8C4.6,159,7,160,9.6,160h0  l66.4-0.2c3.9,0,7.4-2.4,8.9-6c0.1-0.1,6.3-14.8,29.8-38.2c23.6-23.6,39.9-31.1,40-31.2c2.9-1.3,5-3.9,5.5-7  C160.8,74.2,159.8,71.1,157.6,68.8L157.6,68.8z"/>
</svg>