<svg id="Layer_1" xmlns="http://www.w3.org/2000/svg" viewBox="0 0 313.3 105.6"><style>.st0{fill:#3177BC;} .st1{fill:#2E343C;}</style><path class="st0" d="M53.9 44l12.5-1.9.7-6.3H26.5l.7 6.3L39.7 44c.8.1 1.3.8 1.3 1.5v14.6c0 .8-.6 1.4-1.3 1.5l-12.5 1.9-.7 6.3H67l-.7-6.3-12.5-1.9c-.8-.1-1.3-.8-1.3-1.5V45.5c.1-.8.6-1.4 1.4-1.5z"/><path class="st0" d="M89.7 23.6L50.6 1c-2.4-1.4-5.3-1.4-7.7 0L3.8 23.6C1.5 25 0 27.5 0 30.2v45.1c0 2.7 1.5 5.3 3.8 6.6l39.1 22.6c1.2.7 2.5 1 3.8 1s2.7-.4 3.8-1L89.7 82c2.4-1.4 3.8-3.9 3.8-6.6V30.2c0-2.7-1.4-5.2-3.8-6.6zM67.9 60.7c.7.1 1.2.7 1.3 1.3l1 9.2c0 .4-.1.9-.4 1.2-.3.3-.7.5-1.1.5H24.8c-.4 0-.8-.2-1.1-.5-.3-.3-.4-.8-.4-1.2l1-9.2c.1-.7.6-1.2 1.3-1.3l12.3-1.8v-12L25.6 45c-.7-.1-1.2-.7-1.3-1.3l-1-9.2c0-.4.1-.9.4-1.2.3-.3.7-.5 1.1-.5h43.9c.4 0 .8.2 1.1.5.3.3.4.8.4 1.2l-1 9.2c-.1.7-.6 1.2-1.3 1.3l-12.3 1.8v12l12.3 1.9z"/><g><path class="st1" d="M230.6 34.1c-14.2 0-25.7 11.1-25.7 24.8 0 13.7 11.5 24.8 25.7 24.8s25.7-11.1 25.7-24.8c0-13.6-11.5-24.8-25.7-24.8zM243.5 59c0 7.5-5.8 13.6-12.9 13.6s-12.9-6.1-12.9-13.6 5.8-13.6 12.9-13.6 12.9 6 12.9 13.6zM160.4 23.3h-11.9c-.4 0-.7.3-.7.7v58.6c0 .4.3.7.7.7h11.9c.4 0 .7-.3.7-.7V23.9c0-.3-.3-.6-.7-.6zM201.3 34.1c-3.8.1-7.1.9-10 2.6-2.2 1.3-4 3-5.5 5.2v-6.7c0-.4-.3-.7-.7-.7h-11.5c-.4 0-.7.3-.7.7v47.4c0 .4.3.7.7.7h11.5c.4 0 .7-.3.7-.7V59.7c0-4.1 1.4-7.5 4.2-9.9 2.5-2.2 5.8-3.3 9.8-3.3h1.4c.2 0 .3-.1.5-.2.1-.1.2-.3.2-.5V34.7c0-.2-.1-.4-.2-.5 0-.1-.2-.1-.4-.1zM308.4 39.2c-3.2-3.4-7.7-5.1-13.3-5.1-7.4.1-12.8 2.7-16.3 7.6v-6.5c0-.4-.3-.7-.7-.7h-11.5c-.4 0-.7.3-.7.7v47.4c0 .4.3.7.7.7h11.5c.4 0 .7-.3.7-.7V59.3c0-3.8 1.1-6.9 3.2-9.3 2.1-2.4 4.9-3.6 8.6-3.7 3 0 5.5.9 7.2 2.7 1.8 1.8 2.6 4.3 2.6 7.4v26.2c0 .4.3.7.7.7h11.6c.4 0 .7-.3.7-.7V53c-.1-5.8-1.7-10.4-5-13.8z"/></g></svg>